HIERARCHY
ROOT Hips
{
	OFFSET -0.001795 -0.223333 0.028219
	CHANNELS 6 Xposition Yposition Zposition Zrotation Yrotation Xrotation 
	JOINT LeftUpLeg
	{
		OFFSET 0.069520 -0.091406 -0.006815
		CHANNELS 3 Zrotation Yrotation Xrotation
		JOINT LeftLeg
		{
			OFFSET 0.034277 -0.375199 -0.004496
			CHANNELS 3 Zrotation Yrotation Xrotation
			JOINT LeftFoot
			{
				OFFSET -0.013596 -0.397961 -0.043693
				CHANNELS 3 Zrotation Yrotation Xrotation
				JOINT LeftToe
				{
					OFFSET 0.026358 -0.055791 0.119288
					CHANNELS 3 Zrotation Yrotation Xrotation
					End Site
					{
						OFFSET 0.000000 0.000000 0.000000
					}
				}
			}
		}
	}
	JOINT RightUpLeg
	{
		OFFSET -0.067670 -0.090522 -0.004320
		CHANNELS 3 Zrotation Yrotation Xrotation
		JOINT RightLeg
		{
			OFFSET -0.038290 -0.382569 -0.008850
			CHANNELS 3 Zrotation Yrotation Xrotation
			JOINT RightFoot
			{
				OFFSET 0.015774 -0.398415 -0.042312
				CHANNELS 3 Zrotation Yrotation Xrotation
				JOINT RightToe
				{
					OFFSET -0.025372 -0.048144 0.123348
					CHANNELS 3 Zrotation Yrotation Xrotation
					End Site
					{
						OFFSET 0.000000 0.000000 0.000000
					}
				}
			}
		}
	}
	JOINT Spine
	{
		OFFSET -0.002533 0.108963 -0.026696
		CHANNELS 3 Zrotation Yrotation Xrotation
		JOINT Spine1
		{
			OFFSET 0.005487 0.135180 0.001092
			CHANNELS 3 Zrotation Yrotation Xrotation
			JOINT Spine2
			{
				OFFSET 0.001457 0.052922 0.025425
				CHANNELS 3 Zrotation Yrotation Xrotation
				JOINT Neck
				{
					OFFSET -0.002778 0.213870 -0.042857
					CHANNELS 3 Zrotation Yrotation Xrotation
					JOINT Head
					{
						OFFSET 0.005152 0.064970 0.051349
						CHANNELS 3 Zrotation Yrotation Xrotation
						End Site
						{
							OFFSET 0.000000 0.000000 0.000000
						}
					}
				}
				JOINT LeftShoulder
				{
					OFFSET 0.078845 0.121749 -0.034090
					CHANNELS 3 Zrotation Yrotation Xrotation
					JOINT LeftArm
					{
						OFFSET 0.090977 0.030469 -0.008868
						CHANNELS 3 Zrotation Yrotation Xrotation
						JOINT LeftForeArm
						{
							OFFSET 0.259612 -0.012772 -0.027456
							CHANNELS 3 Zrotation Yrotation Xrotation
							JOINT LeftHand
							{
								OFFSET 0.249234 0.008986 -0.001171
								CHANNELS 3 Zrotation Yrotation Xrotation
								End Site
								{
									OFFSET 0.000000 0.000000 0.000000
								}
							}
						}
					}
				}
				JOINT RightShoulder
				{
					OFFSET -0.081759 0.118833 -0.038615
					CHANNELS 3 Zrotation Yrotation Xrotation
					JOINT RightArm
					{
						OFFSET -0.096012 0.032551 -0.009143
						CHANNELS 3 Zrotation Yrotation Xrotation
						JOINT RightForeArm
						{
							OFFSET -0.253742 -0.013329 -0.021401
							CHANNELS 3 Zrotation Yrotation Xrotation
							JOINT RightHand
							{
								OFFSET -0.255298 0.007772 -0.005559
								CHANNELS 3 Zrotation Yrotation Xrotation
								End Site
								{
									OFFSET 0.000000 0.000000 0.000000
								}
							}
						}
					}
				}
			}
		}
	}
}
MOTION
Frames: 13
Frame Time: 0.050000
0.014383 0.950285 -0.092609 -4.226862 -20.538361 10.032386 12.272846 1.033353 -13.531521 -6.654653 1.350701 5.166133 14.232315 23.269611 22.224188 0.000000 0.000000 0.000000 -1.805361 2.573406 -20.984034 1.305341 0.844982 14.344233 3.181922 0.918214 8.081909 0.000000 0.000000 0.000000 -8.299432 2.665163 26.318681 8.601615 -1.012890 -27.661595 -5.410168 -9.241299 23.355573 -5.136430 1.301121 -26.450031 0.000000 0.000000 0.000000 -14.472353 -15.537662 11.466154 -47.821875 -64.575170 23.931296 81.872925 -51.696913 -33.809593 0.000000 0.000000 0.000000 -2.059510 25.471616 7.802495 58.777837 43.888857 11.032384 -78.542660 72.987842 -63.837800 0.000000 0.000000 0.000000 
0.007539 0.947167 -0.093219 -4.015801 -22.609134 9.952329 13.396111 1.507146 -14.672698 -7.727406 1.996528 9.067043 13.621298 23.008155 17.930820 0.000000 0.000000 0.000000 -0.882110 2.885099 -21.839303 1.332915 1.107044 16.367684 1.809337 -0.430888 5.675391 0.000000 0.000000 0.000000 -9.918912 3.330264 26.130514 7.056540 -0.603767 -28.739813 -6.208585 -9.713661 24.178936 -4.516150 0.729765 -24.209027 0.000000 0.000000 0.000000 -14.789486 -15.700920 12.044427 -47.298696 -64.082863 23.289243 79.882707 -55.455026 -35.278971 0.000000 0.000000 0.000000 -5.176916 25.176119 7.821971 50.922057 45.535112 8.504703 -81.390341 64.681259 -59.573235 0.000000 0.000000 0.000000 
0.002404 0.942731 -0.092913 -4.214317 -25.277109 9.786031 14.520737 2.044432 -15.223822 -9.020842 2.864443 12.181912 14.448642 24.875197 14.455128 0.000000 0.000000 0.000000 -0.103361 3.242008 -22.771409 1.346429 1.665558 20.067082 1.027711 1.027950 1.720396 0.000000 0.000000 0.000000 -10.350700 3.733132 26.303365 4.900641 -0.262121 -28.850296 -6.689887 -11.501553 23.723838 -4.218758 0.122922 -22.692596 0.000000 0.000000 0.000000 -14.996435 -16.410476 13.233652 -47.124467 -64.286416 23.554620 78.167194 -57.668810 -35.349805 0.000000 0.000000 0.000000 -7.937396 23.630123 7.713832 41.392139 47.005441 5.052988 -76.694494 57.180796 -51.035367 0.000000 0.000000 0.000000 
-0.002067 0.938503 -0.091008 -4.486557 -28.610440 9.311159 15.441593 2.705668 -15.857368 -9.757144 4.125456 16.975754 14.837752 26.254217 11.188493 0.000000 0.000000 0.000000 1.123515 3.813868 -24.064056 1.484096 2.301091 23.300181 0.268608 -0.140689 0.914224 0.000000 0.000000 0.000000 -11.319624 4.270608 25.934835 4.923995 -0.280418 -28.776359 -8.960123 -13.471971 23.727463 -5.554467 0.458360 -21.233331 0.000000 0.000000 0.000000 -15.129695 -16.114487 13.995382 -44.509134 -63.959587 21.926619 85.039086 -61.977851 -42.669597 0.000000 0.000000 0.000000 -10.131160 23.016951 8.028194 33.527145 43.578159 1.376833 -80.951370 48.301306 -49.687591 0.000000 0.000000 0.000000 
-0.007238 0.935139 -0.088156 -4.466124 -31.478897 9.321830 16.517942 3.264723 -15.551771 -10.735099 5.207965 19.086185 14.951604 27.157229 8.806221 0.000000 0.000000 0.000000 1.363042 4.362417 -25.622684 2.258826 2.881286 26.636024 -0.244381 -0.156500 -0.385537 0.000000 0.000000 0.000000 -11.846762 4.518067 25.109088 4.576683 0.041748 -30.567182 -11.471104 -17.020415 26.468067 -5.482028 -0.334977 -19.411261 0.000000 0.000000 0.000000 -14.918136 -17.397818 15.928094 -38.657442 -65.848906 19.602082 90.570775 -60.475185 -44.346519 0.000000 0.000000 0.000000 -12.608918 19.575586 8.232829 28.192833 40.075902 -1.359181 -89.295601 37.703770 -50.983339 0.000000 0.000000 0.000000 
-0.013948 0.931034 -0.085072 -4.376446 -33.308370 9.611339 16.810431 3.738316 -16.530762 -9.722364 5.840457 22.776437 14.249652 25.766615 8.790359 0.000000 0.000000 0.000000 0.829719 5.229888 -28.647235 4.734073 3.117549 30.851514 -0.822913 -2.581643 0.514319 0.000000 0.000000 0.000000 -12.182126 4.534650 23.925069 4.954207 -0.324617 -28.194745 -14.618116 -22.633941 25.207521 -7.559824 0.656741 -17.071056 0.000000 0.000000 0.000000 -12.020083 -16.818614 15.508927 -36.889078 -66.492766 20.662589 100.498140 -60.542891 -50.740695 0.000000 0.000000 0.000000 -15.685179 17.890551 9.341193 25.357529 34.887466 -2.470909 -94.851992 22.890118 -46.668275 0.000000 0.000000 0.000000 
-0.021642 0.924820 -0.082648 -4.899580 -38.054464 9.995747 18.225392 4.773870 -16.245650 -9.147573 7.112279 26.172102 13.179768 24.202043 7.252607 0.000000 0.000000 0.000000 1.210079 6.603480 -31.650193 7.036740 3.854877 35.473221 -0.948553 -3.708074 1.293122 0.000000 0.000000 0.000000 -13.398225 5.146452 23.021017 5.585734 -0.177557 -29.403865 -17.043761 -26.124174 26.331876 -9.421739 1.426292 -15.729192 0.000000 0.000000 0.000000 -10.164490 -17.367715 16.247582 -32.880368 -68.893981 20.842716 100.763696 -54.668147 -43.858308 0.000000 0.000000 0.000000 -18.918595 16.636788 11.032480 23.727490 33.864296 -3.528454 -97.196326 11.722014 -43.320127 0.000000 0.000000 0.000000 
-0.030157 0.915546 -0.081012 -5.060817 -39.126006 10.196469 18.612642 5.567209 -18.132805 -6.806350 7.667362 31.411583 10.702498 20.387789 4.494893 0.000000 0.000000 0.000000 0.638357 7.539130 -34.233793 9.896243 3.868142 39.560159 -1.499592 -5.342499 1.457894 0.000000 0.000000 0.000000 -13.415366 5.277616 23.013635 5.456718 -0.222788 -28.887521 -19.887639 -31.803134 26.746481 -8.684131 -0.349599 -18.556763 0.000000 0.000000 0.000000 -5.800388 -19.298966 16.256740 -29.875714 -72.900552 23.837110 101.845403 -45.588726 -34.479477 0.000000 0.000000 0.000000 -23.803421 15.330640 13.653459 23.376727 31.797596 -3.998518 -96.411195 2.545483 -41.469609 0.000000 0.000000 0.000000 
-0.039232 0.903766 -0.080140 -6.158306 -44.542292 9.938337 19.781903 6.577129 -16.632440 -4.721480 8.870385 35.241016 8.436795 16.856022 1.161946 0.000000 0.000000 0.000000 1.639310 9.199406 -36.239475 13.367632 4.346523 43.525404 -1.979650 -8.509233 3.660562 0.000000 0.000000 0.000000 -14.681673 5.914389 22.024500 5.032629 0.122217 -30.263480 -22.393728 -34.067381 30.405634 -8.161955 -1.485446 -18.572494 0.000000 0.000000 0.000000 -0.789421 -20.778781 15.030058 -23.300379 -75.694527 23.902839 96.263334 -32.496163 -18.999623 0.000000 0.000000 0.000000 -28.600178 14.189005 16.585799 19.043665 33.698703 -5.880192 -95.378657 -1.707664 -44.446912 0.000000 0.000000 0.000000 
-0.049751 0.893175 -0.079151 -6.658433 -46.461258 9.727837 20.913066 7.339789 -16.092384 -2.370078 8.997212 38.232465 4.849412 10.757000 -4.939298 0.000000 0.000000 0.000000 2.504721 9.981070 -36.810957 15.414585 4.661122 46.621876 -3.051024 -10.078836 2.183667 0.000000 0.000000 0.000000 -15.336916 6.295942 21.855569 5.617304 0.182742 -30.752697 -25.646913 -39.550373 32.447527 -5.644116 -3.209734 -18.686622 0.000000 0.000000 0.000000 1.467268 -21.821512 16.235084 -10.205959 -76.646744 16.178096 97.278428 -21.642278 -8.345766 0.000000 0.000000 0.000000 -35.787404 12.419578 20.644822 14.902903 36.808441 -9.072086 -93.552173 -5.233337 -48.024140 0.000000 0.000000 0.000000 
-0.062168 0.885885 -0.078695 -8.079986 -53.751936 9.968881 21.769189 8.037560 -12.737953 0.504946 9.999660 40.467020 2.586774 6.255459 -5.227856 0.000000 0.000000 0.000000 2.906324 11.211409 -37.365779 19.290218 5.180430 48.498135 -1.709088 -9.157117 4.919530 0.000000 0.000000 0.000000 -17.187977 7.038099 19.853127 5.191332 0.155676 -30.240167 -25.650523 -38.915981 32.255622 -5.854596 -2.515055 -16.191637 0.000000 0.000000 0.000000 4.990414 -22.639905 15.291722 4.382014 -75.921776 7.538991 93.831982 -15.136972 -2.947277 0.000000 0.000000 0.000000 -37.529978 13.527939 22.343392 10.041570 34.651092 -9.241916 -94.034849 -7.488299 -51.443731 0.000000 0.000000 0.000000 
-0.075982 0.886133 -0.079628 -9.441399 -58.011638 9.632096 21.632749 7.288901 -7.503720 2.901512 9.347712 39.220437 -0.123423 1.743976 -9.651071 0.000000 0.000000 0.000000 4.558841 11.033320 -35.293895 19.297952 6.117162 47.560786 1.063957 -6.179387 8.675775 0.000000 0.000000 0.000000 -18.084384 7.556579 19.149677 4.480511 0.599509 -31.912081 -30.219338 -41.488056 37.401110 -4.576500 -2.305298 -13.819255 0.000000 0.000000 0.000000 8.583866 -23.804715 15.698058 18.839793 -71.982250 -0.640915 94.077096 -7.140697 5.079930 0.000000 0.000000 0.000000 -40.405310 12.893576 23.741543 4.300498 33.389272 -10.776411 -92.860536 -8.161153 -56.041513 0.000000 0.000000 0.000000 
-0.088297 0.888044 -0.082505 -11.519202 -65.761981 11.781977 22.235451 8.075149 -4.251212 2.649381 10.186103 36.561619 -1.736213 -0.766664 -7.255062 0.000000 0.000000 0.000000 5.870915 11.984645 -34.984098 19.585632 7.606946 47.273396 4.496490 -3.211142 12.809297 0.000000 0.000000 0.000000 -20.393119 8.171457 15.802142 4.795378 0.167244 -29.854629 -28.940554 -40.608711 34.112162 -3.494044 -0.986591 -10.970877 0.000000 0.000000 0.000000 10.060286 -22.652748 15.460952 31.109844 -66.777569 -6.195221 90.992824 -3.305037 8.929001 0.000000 0.000000 0.000000 -40.907404 12.012160 23.905964 0.006177 28.973537 -9.151283 -88.040418 -8.713081 -54.900357 0.000000 0.000000 0.000000 
